HIERARCHY
ROOT Hips
{
  OFFSET 0.0000 0.0000 0.0000
  CHANNELS 6 Xposition Yposition Zposition Zrotation Xrotation Yrotation
  JOINT Chest
  {
    OFFSET -0.1728 10.2870 0.1254
    CHANNELS 3 Zrotation Xrotation Yrotation
    JOINT Chest2
    {
      OFFSET 0.3229 15.8173 -2.6440
      CHANNELS 3 Zrotation Xrotation Yrotation
      JOINT LeftCollar
      {
        OFFSET -0.0683 16.8828 0.2989
        CHANNELS 3 Zrotation Xrotation Yrotation
        JOINT LeftShoulder
        {
          OFFSET 16.0110 -3.0750 2.0528
          CHANNELS 3 Zrotation Xrotation Yrotation
          JOINT LeftElbow
          {
            OFFSET 2.6153 -25.4187 1.7231
            CHANNELS 3 Zrotation Xrotation Yrotation
            JOINT LeftWrist
            {
              OFFSET 2.3595 -22.4741 1.0488
              CHANNELS 3 Zrotation Xrotation Yrotation
              End Site
              {
                  OFFSET 1.4871 -13.9919 1.1523
              }
            }
          }
        }
      }
      JOINT RightCollar
      {
        OFFSET -0.0683 16.8828 0.2989
        CHANNELS 3 Zrotation Xrotation Yrotation
        JOINT RightShoulder
        {
          OFFSET -16.3743 -2.4390 2.0841
          CHANNELS 3 Zrotation Xrotation Yrotation
          JOINT RightElbow
          {
            OFFSET -2.6865 -25.0857 1.2959
            CHANNELS 3 Zrotation Xrotation Yrotation
            JOINT RightWrist
            {
              OFFSET -2.3810 -22.8348 1.0329
              CHANNELS 3 Zrotation Xrotation Yrotation
              End Site
              {
                  OFFSET -1.4652 -14.7234 1.0705
              }
            }
          }
        }
      }
      JOINT Neck
      {
        OFFSET -0.0683 16.8828 0.2989
        CHANNELS 3 Zrotation Xrotation Yrotation
        JOINT Head
        {
          OFFSET 0.1300 11.4121 4.7143
          CHANNELS 3 Zrotation Xrotation Yrotation
          End Site
          {
              OFFSET 0.0452 18.0438 0.3379
          }
        }
      }
    }
  }
  JOINT LeftHip
  {
    OFFSET 9.3186 -0.0408 3.5432
    CHANNELS 3 Zrotation Xrotation Yrotation
    JOINT LeftKnee
    {
      OFFSET -0.5435 -48.8357 0.3144
      CHANNELS 3 Zrotation Xrotation Yrotation
      JOINT LeftAnkle
      {
        OFFSET 0.2027 -38.4920 -4.2946
        CHANNELS 3 Zrotation Xrotation Yrotation
        End Site
        {
            OFFSET 1.1879 -7.4484 17.8063
        }
      }
    }
  }
  JOINT RightHip
  {
    OFFSET -10.0712 -0.0749 3.1483
    CHANNELS 3 Zrotation Xrotation Yrotation
    JOINT RightKnee
    {
      OFFSET 0.3157 -48.5179 0.1055
      CHANNELS 3 Zrotation Xrotation Yrotation
      JOINT RightAnkle
      {
        OFFSET -1.1248 -38.4399 -3.4305
        CHANNELS 3 Zrotation Xrotation Yrotation
        End Site
        {
            OFFSET -1.3336 -7.3741 17.3830
        }
      }
    }
  }
}
MOTION
Frames:	27
Frame Time:	0.033333
4.7856 96.6778 177.6592 0.24 13.81 -177.04 1.60 16.72 -1.03 1.62 16.69 -1.01 -0.18 -0.70 0.26 17.76 -14.64 -56.09 9.33 -21.76 -2.24 -7.73 0.30 -9.68 -0.01 -0.80 0.01 -20.89 -17.11 68.60 -13.86 -15.11 3.32 1.28 -1.81 -14.97 -0.10 -13.17 3.39 -0.32 -5.86 3.36 1.97 16.06 -11.69 0.12 -2.00 -0.11 -0.70 -0.42 0.81 2.74 15.34 1.12 0.13 3.27 -0.08 0.07 -2.50 -4.17 
4.6402 96.6771 177.6396 0.16 13.64 -176.96 1.61 16.67 -1.05 1.63 16.65 -1.03 -0.18 -0.70 0.26 17.48 -14.63 -55.60 9.33 -21.75 -2.24 -7.62 0.04 -12.47 -0.01 -0.80 0.01 -20.91 -17.10 68.21 -13.86 -15.11 3.32 1.31 -1.87 -13.94 -0.12 -13.27 3.27 -0.32 -5.96 3.24 1.75 15.90 -12.13 0.13 -1.96 -0.14 -0.56 -0.43 1.38 2.57 15.25 1.22 0.13 3.15 -0.07 0.07 -2.44 -4.25 
4.5562 96.6847 177.6155 0.19 13.47 -177.05 1.61 16.59 -1.03 1.64 16.56 -1.01 -0.18 -0.70 0.26 17.32 -14.56 -55.09 9.33 -21.83 -2.25 -7.45 0.03 -13.79 -0.01 -0.80 0.01 -20.91 -17.05 68.07 -13.86 -15.00 3.32 1.52 -1.83 -13.72 -0.12 -13.28 3.25 -0.32 -5.97 3.22 1.67 15.77 -12.08 0.14 -1.97 -0.14 -0.50 -0.43 1.46 2.50 15.09 1.16 0.13 3.14 -0.07 0.07 -2.43 -4.10 
4.5016 96.6961 177.5869 0.23 13.30 -177.14 1.62 16.50 -1.01 1.65 16.47 -0.99 -0.18 -0.70 0.26 17.19 -14.48 -54.58 9.33 -21.88 -2.25 -7.32 0.06 -13.92 -0.01 -0.80 0.01 -20.92 -16.96 68.18 -13.87 -14.87 3.32 1.79 -1.73 -14.04 -0.13 -13.29 3.21 -0.33 -5.98 3.18 1.66 15.66 -11.87 0.14 -2.01 -0.14 -0.47 -0.43 1.33 2.47 14.91 1.00 0.13 3.15 -0.07 0.07 -2.43 -3.84 
4.4480 96.7084 177.5544 0.27 13.13 -177.21 1.64 16.41 -1.00 1.66 16.38 -0.97 -0.18 -0.70 0.26 17.05 -14.42 -54.12 9.33 -21.90 -2.25 -7.26 -0.01 -13.28 -0.01 -0.80 0.01 -20.96 -16.83 68.43 -13.87 -14.77 3.32 2.07 -1.59 -14.61 -0.16 -13.29 3.14 -0.35 -5.99 3.11 1.66 15.54 -11.76 0.14 -2.06 -0.14 -0.45 -0.43 1.27 2.45 14.74 0.80 0.13 3.17 -0.07 0.07 -2.44 -3.58 
4.3777 96.7199 177.5188 0.29 12.96 -177.24 1.65 16.31 -1.00 1.68 16.28 -0.98 -0.18 -0.70 0.26 16.90 -14.36 -53.73 9.33 -21.83 -2.25 -7.21 -0.13 -12.48 -0.01 -0.80 0.01 -21.03 -16.68 68.74 -13.87 -14.70 3.32 2.32 -1.45 -15.15 -0.19 -13.30 3.06 -0.37 -5.99 3.04 1.63 15.40 -11.89 0.14 -2.10 -0.13 -0.39 -0.44 1.38 2.42 14.59 0.68 0.13 3.19 -0.08 0.07 -2.46 -3.46 
4.2889 96.7288 177.4795 0.30 12.80 -177.23 1.67 16.22 -1.03 1.69 16.20 -1.01 -0.18 -0.70 0.26 16.73 -14.34 -53.47 9.33 -21.79 -2.24 -7.09 -0.19 -12.21 -0.01 -0.80 0.01 -21.12 -16.48 68.90 -13.88 -14.66 3.32 2.54 -1.30 -15.49 -0.23 -13.31 3.00 -0.40 -6.00 2.98 1.55 15.23 -12.23 0.13 -2.09 -0.12 -0.30 -0.46 1.65 2.38 14.45 0.77 0.13 3.22 -0.08 0.07 -2.53 -3.59 
4.1932 96.7330 177.4350 0.28 12.65 -177.20 1.68 16.16 -1.05 1.71 16.13 -1.03 -0.18 -0.70 0.26 16.55 -14.31 -53.28 9.33 -21.76 -2.24 -6.89 -0.08 -12.96 -0.01 -0.80 0.01 -21.23 -16.26 68.97 -13.88 -14.60 3.32 2.72 -1.19 -15.62 -0.25 -13.31 2.96 -0.42 -6.00 2.93 1.46 15.07 -12.59 0.13 -2.06 -0.11 -0.21 -0.49 1.95 2.33 14.34 1.18 0.13 3.25 -0.08 0.07 -2.65 -4.00 
4.1045 96.7316 177.3847 0.26 12.52 -177.19 1.69 16.12 -1.07 1.71 16.09 -1.05 -0.18 -0.70 0.26 16.45 -14.27 -53.15 9.33 -21.87 -2.25 -6.74 0.12 -14.49 -0.01 -0.80 0.01 -21.33 -16.04 68.89 -13.88 -14.54 3.32 2.89 -1.12 -15.68 -0.28 -13.31 2.90 -0.44 -6.00 2.88 1.35 14.94 -12.89 0.13 -2.00 -0.10 -0.13 -0.53 2.23 2.28 14.22 1.82 0.13 3.32 -0.08 0.07 -2.78 -4.61 
4.0295 96.7258 177.3307 0.24 12.41 -177.20 1.69 16.08 -1.08 1.72 16.05 -1.06 -0.18 -0.70 0.26 16.49 -14.21 -53.23 9.32 -22.07 -2.26 -6.71 0.28 -15.85 -0.01 -0.80 0.01 -21.42 -15.85 68.81 -13.88 -14.46 3.32 3.00 -1.17 -15.80 -0.31 -13.26 2.86 -0.46 -5.95 2.84 1.25 14.87 -13.07 0.14 -1.96 -0.09 -0.06 -0.58 2.45 2.24 14.12 2.50 0.13 3.40 -0.08 0.06 -2.91 -5.21 
3.9665 96.7182 177.2769 0.22 12.33 -177.23 1.70 16.04 -1.09 1.72 16.01 -1.07 -0.18 -0.70 0.26 16.75 -14.17 -53.66 9.31 -22.28 -2.26 -6.78 0.31 -15.99 -0.01 -0.80 0.01 -21.51 -15.69 68.74 -13.89 -14.41 3.32 3.08 -1.32 -16.02 -0.32 -13.18 2.83 -0.47 -5.87 2.82 1.17 14.87 -13.14 0.14 -1.94 -0.09 0.00 -0.63 2.63 2.19 14.04 2.99 0.13 3.48 -0.08 0.06 -3.04 -5.64 
3.9132 96.7121 177.2252 0.20 12.25 -177.29 1.70 15.99 -1.11 1.72 15.96 -1.08 -0.18 -0.70 0.26 17.17 -14.16 -54.44 9.31 -22.44 -2.27 -6.80 0.24 -14.64 -0.01 -0.80 0.01 -21.56 -15.59 68.67 -13.89 -14.36 3.32 3.13 -1.50 -16.27 -0.32 -13.07 2.85 -0.47 -5.76 2.83 1.10 14.88 -13.18 0.15 -1.96 -0.10 0.05 -0.66 2.76 2.15 13.99 3.23 0.13 3.55 -0.09 0.06 -3.15 -5.82 
3.8748 96.7096 177.1722 0.20 12.18 -177.35 1.69 15.95 -1.12 1.72 15.92 -1.10 -0.18 -0.70 0.26 17.58 -14.17 -55.25 9.31 -22.54 -2.28 -6.72 0.14 -12.62 -0.01 -0.80 0.01 -21.61 -15.50 68.59 -13.89 -14.32 3.32 3.16 -1.67 -16.40 -0.32 -12.95 2.87 -0.47 -5.64 2.85 1.05 14.89 -13.18 0.17 -2.04 -0.11 0.09 -0.67 2.84 2.13 13.96 3.26 0.13 3.59 -0.09 0.06 -3.24 -5.84 
3.8614 96.7109 177.1099 0.22 12.11 -177.43 1.68 15.91 -1.14 1.71 15.88 -1.12 -0.18 -0.70 0.26 17.84 -14.12 -55.67 9.31 -22.54 -2.28 -6.61 0.02 -11.02 -0.01 -0.80 0.01 -21.59 -15.46 68.40 -13.89 -14.29 3.32 3.18 -1.78 -16.23 -0.31 -12.81 2.90 -0.47 -5.50 2.88 1.04 14.90 -13.06 0.17 -2.12 -0.12 0.11 -0.67 2.85 2.12 13.91 3.32 0.13 3.62 -0.09 0.06 -3.32 -5.87 
3.8776 96.7140 177.0304 0.25 12.03 -177.53 1.67 15.88 -1.17 1.70 15.85 -1.15 -0.18 -0.70 0.26 17.92 -14.02 -55.62 9.31 -22.45 -2.27 -6.57 -0.16 -10.29 -0.01 -0.80 0.01 -21.55 -15.42 68.15 -13.89 -14.32 3.32 3.20 -1.84 -15.68 -0.30 -12.68 2.92 -0.46 -5.38 2.90 1.07 14.91 -12.79 0.17 -2.21 -0.13 0.09 -0.68 2.72 2.16 13.88 3.59 0.13 3.65 -0.09 0.06 -3.39 -6.05 
3.9143 96.7169 176.9329 0.30 11.95 -177.66 1.66 15.85 -1.20 1.69 15.82 -1.18 -0.18 -0.70 0.26 18.00 -13.91 -55.57 9.31 -22.33 -2.27 -6.60 -0.36 -9.81 -0.01 -0.80 0.01 -21.49 -15.40 67.85 -13.89 -14.41 3.32 3.18 -1.85 -14.82 -0.29 -12.56 2.94 -0.46 -5.26 2.92 1.14 14.96 -12.45 0.17 -2.32 -0.14 0.07 -0.70 2.58 2.25 13.89 4.06 0.13 3.66 -0.09 0.06 -3.44 -6.41 
3.9542 96.7172 176.8255 0.35 11.86 -177.80 1.65 15.82 -1.23 1.68 15.79 -1.20 -0.18 -0.70 0.26 18.31 -13.89 -56.07 9.32 -22.25 -2.26 -6.62 -0.50 -8.76 -0.01 -0.80 0.01 -21.45 -15.40 67.71 -13.88 -14.52 3.32 3.06 -1.84 -13.92 -0.29 -12.46 2.97 -0.46 -5.15 2.95 1.21 15.02 -12.16 0.16 -2.41 -0.16 0.04 -0.73 2.47 2.34 13.91 4.59 0.13 3.63 -0.09 0.06 -3.49 -6.79 
3.9876 96.7135 176.7196 0.38 11.74 -177.93 1.63 15.78 -1.27 1.66 15.75 -1.25 -0.18 -0.70 0.26 18.80 -14.00 -57.04 9.32 -22.17 -2.26 -6.69 -0.52 -7.14 -0.01 -0.80 0.01 -21.40 -15.47 67.68 -13.88 -14.66 3.32 2.83 -1.79 -13.26 -0.29 -12.37 3.02 -0.47 -5.06 3.00 1.23 15.04 -12.01 0.16 -2.48 -0.17 0.03 -0.79 2.47 2.36 13.89 4.92 0.13 3.60 -0.09 0.06 -3.55 -6.98 
4.0225 96.7058 176.6191 0.38 11.59 -178.05 1.61 15.76 -1.32 1.64 15.73 -1.30 -0.18 -0.70 0.26 19.21 -14.16 -57.78 9.32 -22.09 -2.26 -6.91 -0.41 -5.87 -0.01 -0.80 0.01 -21.38 -15.60 67.93 -13.87 -14.79 3.32 2.51 -1.76 -13.00 -0.30 -12.31 3.11 -0.48 -5.00 3.09 1.21 14.96 -12.02 0.17 -2.48 -0.17 0.03 -0.90 2.60 2.34 13.78 4.91 0.13 3.61 -0.09 0.06 -3.64 -6.81 
4.0780 96.6962 176.5151 0.38 11.38 -178.16 1.58 15.73 -1.41 1.61 15.70 -1.39 -0.18 -0.70 0.26 19.31 -14.26 -57.72 9.32 -21.96 -2.25 -7.37 -0.20 -5.82 -0.01 -0.80 0.01 -21.35 -15.75 68.26 -13.86 -14.91 3.32 2.16 -1.72 -13.07 -0.31 -12.25 3.23 -0.51 -4.95 3.21 1.17 14.78 -12.09 0.18 -2.37 -0.16 0.02 -1.04 2.74 2.28 13.54 4.54 0.13 3.71 -0.09 0.06 -3.77 -6.29 
4.1677 96.6879 176.3901 0.37 11.14 -178.28 1.57 15.70 -1.51 1.59 15.67 -1.49 -0.18 -0.70 0.26 19.15 -14.26 -57.08 9.33 -21.79 -2.24 -7.95 0.08 -7.02 -0.01 -0.80 0.01 -21.32 -15.89 68.71 -13.86 -15.00 3.32 1.83 -1.75 -13.32 -0.34 -12.20 3.38 -0.56 -4.90 3.36 1.17 14.55 -12.12 0.19 -2.23 -0.14 -0.01 -1.20 2.82 2.25 13.24 4.03 0.13 3.86 -0.09 0.06 -3.91 -5.61 
4.2904 96.6829 176.2292 0.38 10.87 -178.43 1.56 15.66 -1.62 1.59 15.63 -1.60 -0.18 -0.70 0.26 18.94 -14.20 -56.47 9.33 -21.60 -2.24 -8.44 0.39 -8.75 -0.01 -0.80 0.01 -21.29 -16.02 69.12 -13.86 -15.10 3.32 1.57 -1.79 -13.61 -0.39 -12.15 3.54 -0.63 -4.84 3.52 1.23 14.38 -12.02 0.18 -2.19 -0.14 -0.07 -1.35 2.85 2.27 12.96 3.64 0.13 4.00 -0.10 0.06 -4.05 -5.03 
4.4345 96.6788 176.0276 0.41 10.62 -178.62 1.56 15.61 -1.73 1.59 15.58 -1.71 -0.18 -0.70 0.26 18.86 -14.13 -56.37 9.34 -21.47 -2.23 -8.74 0.66 -10.47 -0.01 -0.80 0.01 -21.27 -16.13 69.53 -13.85 -15.18 3.33 1.35 -1.84 -13.90 -0.44 -12.09 3.70 -0.70 -4.78 3.67 1.35 14.32 -11.81 0.16 -2.29 -0.15 -0.15 -1.47 2.82 2.36 12.81 3.62 0.13 4.00 -0.10 0.07 -4.17 -4.79 
4.5895 96.6701 175.7892 0.45 10.39 -178.85 1.56 15.58 -1.82 1.59 15.55 -1.80 -0.18 -0.70 0.26 18.93 -14.12 -56.78 9.34 -21.38 -2.23 -8.89 0.86 -11.96 -0.01 -0.80 0.01 -21.26 -16.23 69.89 -13.85 -15.27 3.33 1.19 -1.83 -14.21 -0.50 -12.03 3.83 -0.78 -4.73 3.81 1.49 14.39 -11.56 0.15 -2.53 -0.15 -0.23 -1.56 2.77 2.47 12.81 3.97 0.13 3.85 -0.09 0.07 -4.27 -4.94 
4.7527 96.6518 175.5213 0.48 10.19 -179.10 1.56 15.56 -1.87 1.59 15.53 -1.85 -0.18 -0.70 0.26 19.09 -14.19 -57.43 9.34 -21.40 -2.23 -8.98 1.02 -13.25 -0.01 -0.80 0.01 -21.25 -16.32 70.19 -13.84 -15.36 3.33 1.08 -1.80 -14.56 -0.56 -11.99 3.95 -0.85 -4.69 3.92 1.62 14.52 -11.31 0.13 -2.78 -0.16 -0.32 -1.65 2.73 2.58 12.94 4.62 0.13 3.59 -0.09 0.06 -4.34 -5.35 
4.9284 96.6213 175.2291 0.49 10.00 -179.40 1.56 15.56 -1.93 1.59 15.53 -1.90 -0.18 -0.70 0.26 19.29 -14.36 -58.20 9.34 -21.44 -2.23 -9.07 1.19 -14.15 -0.01 -0.80 0.01 -21.26 -16.39 70.37 -13.84 -15.45 3.33 1.05 -1.70 -14.86 -0.62 -11.98 4.05 -0.92 -4.68 4.02 1.72 14.66 -11.04 0.12 -2.99 -0.16 -0.41 -1.77 2.67 2.64 13.09 5.32 0.13 3.31 -0.08 0.06 -4.41 -5.76 
5.1236 96.5808 174.9161 0.51 9.79 -179.73 1.55 15.57 -1.95 1.58 15.54 -1.93 -0.18 -0.70 0.26 19.51 -14.61 -59.07 9.34 -21.53 -2.23 -9.16 1.39 -14.45 -0.01 -0.80 0.01 -21.27 -16.45 70.36 -13.84 -15.50 3.33 1.08 -1.65 -15.02 -0.69 -12.00 4.15 -1.00 -4.70 4.11 1.82 14.75 -10.66 0.11 -3.08 -0.16 -0.51 -1.99 2.56 2.70 13.21 6.00 0.13 3.07 -0.07 0.06 -4.48 -6.03 
